<svg width="15" height="15" viewBox="0 0 15 15" fill="none" xmlns="http://www.w3.org/2000/svg">
<path d="M1.8 3.59999C2.79411 3.59999 3.59999 2.79411 3.59999 1.8C3.59999 0.805886 2.79411 0 1.8 0C0.805886 0 0 0.805886 0 1.8C0 2.79411 0.805886 3.59999 1.8 3.59999Z" fill="white"/>
<path d="M7.39961 3.59999C8.39372 3.59999 9.1996 2.79411 9.1996 1.8C9.1996 0.805886 8.39372 0 7.39961 0C6.4055 0 5.59961 0.805886 5.59961 1.8C5.59961 2.79411 6.4055 3.59999 7.39961 3.59999Z" fill="white"/>
<path d="M12.9992 3.59999C13.9933 3.59999 14.7992 2.79411 14.7992 1.8C14.7992 0.805886 13.9933 0 12.9992 0C12.0051 0 11.1992 0.805886 11.1992 1.8C11.1992 2.79411 12.0051 3.59999 12.9992 3.59999Z" fill="white"/>
<path d="M1.8 9.1996C2.79411 9.1996 3.59999 8.39372 3.59999 7.39961C3.59999 6.4055 2.79411 5.59961 1.8 5.59961C0.805886 5.59961 0 6.4055 0 7.39961C0 8.39372 0.805886 9.1996 1.8 9.1996Z" fill="white"/>
<path d="M7.39961 9.1996C8.39372 9.1996 9.1996 8.39372 9.1996 7.39961C9.1996 6.4055 8.39372 5.59961 7.39961 5.59961C6.4055 5.59961 5.59961 6.4055 5.59961 7.39961C5.59961 8.39372 6.4055 9.1996 7.39961 9.1996Z" fill="white"/>
<path d="M12.9992 9.1996C13.9933 9.1996 14.7992 8.39372 14.7992 7.39961C14.7992 6.4055 13.9933 5.59961 12.9992 5.59961C12.0051 5.59961 11.1992 6.4055 11.1992 7.39961C11.1992 8.39372 12.0051 9.1996 12.9992 9.1996Z" fill="white"/>
<path d="M1.8 14.7992C2.79411 14.7992 3.59999 13.9933 3.59999 12.9992C3.59999 12.0051 2.79411 11.1992 1.8 11.1992C0.805886 11.1992 0 12.0051 0 12.9992C0 13.9933 0.805886 14.7992 1.8 14.7992Z" fill="white"/>
<path d="M7.39961 14.7992C8.39372 14.7992 9.1996 13.9933 9.1996 12.9992C9.1996 12.0051 8.39372 11.1992 7.39961 11.1992C6.4055 11.1992 5.59961 12.0051 5.59961 12.9992C5.59961 13.9933 6.4055 14.7992 7.39961 14.7992Z" fill="white"/>
<path d="M12.9992 14.7992C13.9933 14.7992 14.7992 13.9933 14.7992 12.9992C14.7992 12.0051 13.9933 11.1992 12.9992 11.1992C12.0051 11.1992 11.1992 12.0051 11.1992 12.9992C11.1992 13.9933 12.0051 14.7992 12.9992 14.7992Z" fill="white"/>
</svg>
